<svg xmlns="http://www.w3.org/2000/svg" xmlns:xlink="http://www.w3.org/1999/xlink" width="162" height="38" viewBox="0 0 162 38"><defs><path id="9reda" d="M517.25 29.42c0 6.21-4 9.76-9.4 9.76-5.59 0-9.1-4.01-9.1-9.43 0-5.72 3.83-9.74 9.39-9.74 5.72 0 9.11 4.1 9.11 9.4zm-14.7.25c0 3.8 2.02 6.79 5.47 6.79 3.48 0 5.44-3.05 5.44-6.93 0-3.5-1.85-6.8-5.44-6.8-3.57 0-5.47 3.11-5.47 6.94zm17.64.27c0-1.76-.05-3.19-.11-4.45h3.15l.18 2.06h.06a5.65 5.65 0 0 1 4.88-2.37c3.27 0 5.99 2.64 5.99 6.82 0 4.84-3.24 7.18-6.49 7.18-1.78 0-3.27-.71-4-1.79h-.06v6.93h-3.6zm3.6 3.33c0 .33.03.63.09.93a3.25 3.25 0 0 0 3.18 2.37c2.28 0 3.63-1.79 3.63-4.43 0-2.36-1.23-4.29-3.54-4.29a3.36 3.36 0 0 0-3.36 3.36zm17.61-11.22v3.44h3.42v2.53h-3.42v5.9c0 1.66.47 2.48 1.84 2.48.65 0 1-.02 1.4-.13l.06 2.55c-.52.2-1.49.36-2.6.36a4.26 4.26 0 0 1-3.1-1.1c-.78-.77-1.13-2-1.13-3.77v-6.3h-2.02V25.5h2.02v-2.5zm8.68 11.08c.08 2.42 2.07 3.47 4.38 3.47 1.66 0 2.83-.25 3.94-.6l.53 2.3c-1.23.5-2.92.85-4.97.85-4.62 0-7.33-2.66-7.33-6.76 0-3.71 2.4-7.2 6.95-7.2 4.62 0 6.14 3.57 6.14 6.51 0 .63-.06 1.13-.12 1.43zm6.25-2.36c.03-1.24-.56-3.28-2.95-3.28-2.22 0-3.16 1.9-3.3 3.28zm16.74 7.7c-.76.33-2.25.68-4.04.68-4.44 0-7.33-2.7-7.33-6.84 0-4.02 2.92-7.13 7.92-7.13 1.31 0 2.66.28 3.48.6l-.65 2.57a6.23 6.23 0 0 0-2.72-.53c-2.74 0-4.38 1.9-4.35 4.35 0 2.75 1.9 4.32 4.35 4.32 1.23 0 2.14-.25 2.84-.53zm6.24-7.1h.06c.35-.52.76-1.1 1.11-1.57l3.48-4.31h4.32L583 30.96l6.03 7.92h-4.42l-4.09-5.91-1.2 1.34v4.57h-3.6V19.35h3.6zm10.28 6.33c0-.8.6-1.36 1.4-1.36.83 0 1.4.55 1.4 1.36 0 .78-.56 1.37-1.42 1.37-.8 0-1.38-.59-1.38-1.37zm11.19.92a6.9 6.9 0 0 1-2.54.43c-2.79 0-4.6-1.7-4.6-4.3 0-2.53 1.83-4.48 4.97-4.48.83 0 1.67.17 2.19.38l-.4 1.6c-.37-.16-.9-.32-1.72-.32-1.72 0-2.75 1.2-2.73 2.73 0 1.73 1.2 2.72 2.73 2.72.78 0 1.35-.16 1.79-.33zm10.18-4.03c0 3.1-2.32 4.48-4.6 4.48-2.51 0-4.48-1.63-4.48-4.34 0-2.76 1.93-4.46 4.63-4.46 2.66 0 4.45 1.76 4.45 4.32zm-6.75.09c0 1.62.87 2.85 2.23 2.85 1.28 0 2.18-1.17 2.18-2.89 0-1.31-.62-2.83-2.16-2.83-1.6 0-2.25 1.47-2.25 2.87zm8.6-1.71c0-.97-.04-1.78-.07-2.5h1.93l.1 1.24h.06a3.08 3.08 0 0 1 2.76-1.44c1.17 0 2.1.62 2.48 1.56h.03a3.43 3.43 0 0 1 2.92-1.56c1.47 0 2.98.95 2.98 3.65v4.96h-2.2v-4.65c0-1.4-.52-2.23-1.6-2.23-.77 0-1.34.52-1.58 1.12-.08.2-.11.47-.11.71v5.05h-2.2V34c0-1.17-.5-2-1.55-2-.84 0-1.41.62-1.63 1.2a2.3 2.3 0 0 0-.11.7v4.98h-2.2z"/><path id="9redb" d="M480.12 25.51l5.25 4.94-5.25 4.94-5.26-4.94z"/><path id="9redc" d="M487.73 30.4l4.39-4.81-12.04-12.55-.04 10z"/><path id="9redd" d="M467.06 25.42l4.86 4.88 8.13-7.26.03-10.04z"/><path id="9rede" d="M492.13 25.59L480.18 38.1V48l11.95-12.67z"/><path id="9redf" d="M480.19 38.11l-.01 9.77L467 35.2l.06-9.8z"/></defs><g><g transform="translate(-465 -11)"><g><use fill="#fff" xlink:href="#9reda"/></g><g><use fill="#1f3664" xlink:href="#9redb"/></g><g><use fill="#b7ea3e" xlink:href="#9redc"/></g><g><use fill="#86bf30" xlink:href="#9redd"/></g><g><use fill="#3a6639" xlink:href="#9rede"/></g><g><use fill="#5f9824" xlink:href="#9redf"/></g></g></g></svg>